<?xml version="1.0" encoding="UTF-8"?> <svg xmlns="http://www.w3.org/2000/svg" xmlns:xlink="http://www.w3.org/1999/xlink" width="239.603" height="41.564" viewBox="0 0 239.603 41.564"><defs><clipPath id="clip-path"><rect id="Rechteck_114" data-name="Rechteck 114" width="139.495" height="30.779" fill="#ffcd11"></rect></clipPath></defs><g id="Zekju_Logo" transform="translate(-79.5 -45.128)"><g id="Gruppe_148" data-name="Gruppe 148" transform="translate(179.609 45.628)"><path id="Pfad_191" data-name="Pfad 191" d="M.229,0V6.845h15.9L0,23.751V30.32H26.737V23.475H10.14L26.231,6.569V0Z" transform="translate(0 0)" fill="#ffcd11"></path><path id="Pfad_192" data-name="Pfad 192" d="M49.63,0V30.32H74.666V23.291H59V18.468H71.036V11.944H59V7.029H74.069V0Z" transform="translate(-17.722 0)" fill="#ffcd11"></path><path id="Pfad_193" data-name="Pfad 193" d="M123.006,0l-13.92,15.092V0h-4.915V30.32h4.915V20.982l4.908-5.28,9.518,14.617H129.3L117.554,12.406,129.024,0Z" transform="translate(-42.057 0)" fill="#ffcd11"></path><g id="Gruppe_136" data-name="Gruppe 136" transform="translate(0 0)"><g id="Gruppe_135" data-name="Gruppe 135" clip-path="url(#clip-path)"><path id="Pfad_194" data-name="Pfad 194" d="M167.488,0V19.57q0,5.282-2.917,8.246t-8.109,2.963A11.852,11.852,0,0,1,150.4,29.4a7.311,7.311,0,0,1-3.262-3.882,11.021,11.021,0,0,1-.322-5.812l4.732-.873q-.551,3.952.6,5.811t4.318,1.861q3.447,0,4.755-2a10.744,10.744,0,0,0,1.309-5.857V0Z" transform="translate(-58.25 0)" fill="#ffcd11"></path><path id="Pfad_195" data-name="Pfad 195" d="M215.158,0V18.7q0,6.019-3.17,9.05t-9.233,3.032q-5.972,0-9.166-3.032T190.4,18.7V0h4.915V18.1q0,4.273,1.837,6.34t5.605,2.067q3.812,0,5.649-2.067t1.839-6.34V0Z" transform="translate(-75.663 0)" fill="#ffcd11"></path></g></g></g><g id="Gruppe_149" data-name="Gruppe 149" transform="translate(80 45.628)"><g id="Gruppe_138" data-name="Gruppe 138" transform="translate(0 0)"><path id="Vereinigungsmenge_15" data-name="Vereinigungsmenge 15" d="M4.262,30.779H0V0H51.984V30.779H13.34L4.262,39.857Z" fill="#ffcd11" stroke="rgba(0,0,0,0)" stroke-width="1"></path><g id="Gruppe_92" data-name="Gruppe 92" transform="translate(54.081 4.643)"><g id="Gruppe_68" data-name="Gruppe 68" transform="translate(0 0)"><path id="Pfad_2" data-name="Pfad 2" d="M109.875,7.451h-12.7V33.587h3.864a5.983,5.983,0,0,1,11.965,0h3.864V14.441Zm-2.019,9.009v-6.8l6.8,6.8Zm-.839,13.7a3.428,3.428,0,0,0-3.429,3.427h6.857a3.428,3.428,0,0,0-3.429-3.427" transform="translate(-97.171 -7.451)" fill="#ffcd11"></path></g></g></g><g id="Gruppe_139" data-name="Gruppe 139" transform="translate(14.806 8.463)"><rect id="Rechteck_3" data-name="Rechteck 3" width="22.68" height="2.75"></rect><rect id="Rechteck_4" data-name="Rechteck 4" width="22.68" height="2.75" transform="translate(0 11.104)"></rect><rect id="Rechteck_5" data-name="Rechteck 5" width="15.75" height="2.75" transform="translate(0 5.552)"></rect></g></g></g></svg> 